<?xml version="1.0" encoding="UTF-8" standalone="no"?>
<svg
  xmlns="http://www.w3.org/2000/svg"
  version="1.1"
  id="svg2"
  viewBox="0 0 1080 1080"
  height="12in"
  width="12in">
  <defs id="defs4" />
  <g
    transform="translate(0,27.63782)"
    id="layer1">
    <path
      style="fill:#c81517"
      id="path3324"
      d="m 555.4164,255.3486 c -16.579,0.024 -33.2359,0.9239 -42.7812,2.7188 -79.9634,15.0352 -145.5955,68.4756 -176.6876,143.875 -11.7671,28.5357 -14.9665,45.1074 -15.9062,82.4687 -0.763,30.33305 -0.3958,36.31575 3.1562,52.90625 16.8942,78.90612 67.4284,140.26079 141.5313,171.75 17.9471,7.62644 32.3523,11.80392 54.3125,15.78125 17.2283,3.12035 63.2607,2.02522 82.4688,-1.96875 90.1069,-18.7362 162.8665,-87.46651 183.5937,-173.375 7.4599,-30.91919 9.014,-72.42925 3.7187,-100.34375 -18.63,-98.2097 -92.7636,-172.39 -191.0937,-191.2187 -9.2294,-1.7673 -25.7335,-2.6181 -42.3125,-2.5938 z" />
    <path
      style="opacity:0.98999999;fill:#ffffff;fill-opacity:1;fill-rule:nonzero;stroke:none"
      id="path3311"
      d="m 558.2562,266.7659 c -13.2743,0 -26.9073,0.3589 -33.2187,1.0937 -18.9202,2.2028 -37.0479,7.252 -55.0938,15.3125 -19.6414,8.7733 -39.1371,19.6043 -45.75,25.4062 l -2.1562,1.875 3.9062,5.0938 c 2.152,2.7897 4.0472,5.0818 4.2188,5.0938 0.1715,0.012 1.7006,-2.4546 3.4062,-5.4688 3.2211,-5.6921 6.5019,-9.4873 7.5938,-8.8125 0.9458,0.5846 0.7753,5.9115 -0.4688,14.1875 -1.7724,11.7902 -1.9354,14.2634 -1.0312,15.5 1.3464,1.8415 3.4409,0.6707 7.9687,-4.3438 4.3041,-4.7668 6.1466,-5.7053 6.5,-3.3437 0.3298,2.2033 -0.6423,7.2279 -2.5313,13.125 -2.3229,7.252 -2.7231,11.4715 -1.375,14.3125 0.6008,1.2663 1.4218,2.125 2.0313,2.125 0.5646,0 3.0023,-2.1646 5.4063,-4.8125 4.9488,-5.4511 7.1691,-7.0147 8.0624,-5.6563 0.7647,1.1627 0.2931,3.5311 -2.7187,13.6563 -2.9068,9.772 -4.1115,15.4131 -3.5625,16.8437 0.338,0.8805 0.5091,0.8982 2.125,0.063 0.9697,-0.5015 3.5294,-2.4271 5.6875,-4.2813 9.8447,-8.4582 10.1628,-7.6245 3.625,10.3437 -4.4571,12.2496 -5.118,14.7908 -4.0625,16.0626 1.2261,1.4773 3.2814,0.9502 6.4375,-1.625 4.6145,-3.7654 5.9448,-4.5457 7.5313,-4.375 2.4687,0.2657 1.8224,3.2634 -3.0313,13.875 -4.6704,10.2105 -5.3728,12.2348 -4.8125,14 0.5743,1.8095 2.2963,1.2921 7.4062,-2.1876 5.4445,-3.7073 7.8995,-4.6956 8.4063,-3.375 0.684,1.7825 -0.5633,4.9827 -4.2813,11.0938 -2.1201,3.4847 -4.5848,7.9225 -5.5,9.8438 -1.6116,3.3836 -2.1687,6.8935 -1.1874,7.5 0.2634,0.1627 3.3331,-1.0089 6.8124,-2.5938 7.1486,-3.2562 9.3307,-3.6424 8.6876,-1.5625 -0.6933,2.2419 -2.2967,5.1 -7.5313,13.49995 -5.4166,8.69202 -7.0349,12.04359 -6.5,13.4375 0.5408,1.40923 2.1716,1.03265 7.625,-1.75 5.0672,-2.58561 7.4751,-3.18389 8.1875,-2.03125 0.697,1.12782 -2.5,6.72381 -7.6875,13.46875 -7.7537,10.0814 -9.9844,15.03625 -6.75,15.03125 0.5705,-8.2e-4 2.5829,-0.92536 4.4687,-2.0625 8.4357,-5.08655 12,-6.14615 12,-3.59375 0,1.90975 -1.8893,4.71525 -6.9374,10.3125 -7.4756,8.28853 -9.9376,11.97533 -9.9376,14.84375 0,1.23999 0.2544,1.46875 1.625,1.46875 0.9025,0 3.0154,-0.40965 4.6876,-0.90625 3.8823,-1.15296 8.762,-0.90681 9.625,0.46875 0.5152,0.82137 0.2081,1.41623 -1.6876,3.375 -1.2738,1.31644 -4.4302,3.91743 -7,5.78125 -8.4542,6.13203 -11.5183,10.38136 -9.625,13.375 0.4656,0.73609 1.106,0.69588 4.625,-0.4375 12.251,-3.9457 14.2139,-0.94898 4.7813,7.34375 -7.2856,6.40524 -11.6875,10.92683 -11.6875,11.96875 0,1.82649 2.3653,2.2874 7.8125,1.5625 2.7674,-0.36827 5.2828,-0.50467 5.5937,-0.3125 1.1317,0.69937 0.5211,3.19738 -1.2812,5.25 -1.0149,1.15596 -4.3697,3.90726 -7.4375,6.09375 -8.4543,6.02559 -11.5465,9.78231 -10,12.15625 0.6232,0.9565 2.2409,1.04086 8.5,0.4375 5.4571,-0.52605 7.1269,0.1586 6.5,2.65625 -0.4207,1.67645 -2.3717,3.11238 -10.6875,7.71875 -7.7092,4.27028 -10.2197,6.55974 -9.9688,9.15625 0.2416,2.49961 1.9918,3.3638 6.75,3.375 3.9827,0.009 7.6876,1.24234 7.6876,2.53125 0,1.31172 -1.6098,2.35982 -9.3126,6.125 -7.5399,3.68562 -12.2187,7.28655 -12.2187,9.375 0,1.22389 0.065,1.24482 8.2813,3.28125 2.1493,0.53268 4.377,1.30895 4.9374,1.71875 1.6255,1.18846 0.1968,2.30458 -8.25,6.53125 -8.6761,4.34145 -13.0655,7.10902 -14.1874,8.9375 -1.6537,2.6952 0.9368,3.3702 13.1562,3.4375 0.7305,0.004 1.5124,0.43121 1.7188,0.96875 0.6386,1.66444 -3.2711,4.35153 -12.125,8.34375 -8.2928,3.73926 -11.5626,5.80524 -11.5626,7.28125 0,1.11586 1.5553,1.50655 8.4688,2 3.3554,0.23948 6.3839,0.69638 6.7188,1.03125 0.3347,0.33488 0.5113,1.34074 0.4062,2.25 -0.2503,2.16557 -2.7754,3.87898 -8.1875,5.46875 -6.0457,1.77592 -12.3767,4.05364 -13.5,4.875 -0.5935,0.43415 -0.8294,1.10458 -0.5937,1.71875 0.5682,1.48081 7.3455,5.75682 16.7187,10.59375 29.755,15.35465 55.341,22.93583 86.5937,25.625 27.0506,2.32756 63.2736,-1.14227 85,-8.15625 12.928,-4.17358 32.6084,-12.59864 44,-18.8125 6.5662,-3.58163 13.488,-8.11626 13.875,-9.125 0.5016,-1.30687 -1.4583,-2.39064 -8.375,-4.65625 -9.4086,-3.08189 -11.6562,-4.36545 -11.6562,-6.6875 0,-1.37265 2.4169,-2.14284 8.125,-2.5625 3.34,-0.24555 4.6001,-0.58997 5.5312,-1.53125 l 1.1876,-1.21875 -2.3126,-2.1875 c -1.3584,-1.27422 -4.2833,-2.98118 -7,-4.09375 -7.8278,-3.20568 -12.1589,-5.30599 -13.5312,-6.59375 -2.7387,-2.57001 -1.2116,-3.76452 5.5,-4.3125 10.1686,-0.83023 9.5798,-2.56812 -3.25,-9.34375 -9.335,-4.93 -12.2812,-6.92483 -12.2812,-8.34375 0,-1.58744 1.4103,-2.12679 6.5937,-2.5 4.3411,-0.31256 7.375,-1.44476 7.375,-2.75 0,-1.47779 -4.8178,-5.57768 -10.9687,-9.34375 -9.0768,-5.55751 -11.3633,-7.76385 -9.3126,-9.03125 0.3764,-0.23267 3.0385,-0.63744 5.9063,-0.875 4.1097,-0.34042 5.4628,-0.68161 6.4063,-1.625 1.0914,-1.0915 1.1383,-1.32197 0.375,-2.75 -0.9996,-1.87022 -5.2503,-5.12546 -10.4688,-8 -4.7643,-2.62442 -8.7188,-5.96421 -8.7188,-7.375 0,-1.36361 1.1862,-1.74557 7.4063,-2.3125 3.7312,-0.34008 5.1922,-0.70599 5.75,-1.46875 1.5521,-2.12271 -0.5465,-4.33931 -13.2813,-13.96875 -4.6217,-3.49479 -6.924,-6.49022 -5.6562,-7.34375 0.4883,-0.32874 3.057,-0.40259 6.1875,-0.1875 5.7732,0.39665 7.4379,0.13349 7.9687,-1.25 0.7547,-1.96673 -1.6925,-4.78437 -12.125,-13.875 -3.5072,-3.05623 -6.1462,-6.23255 -6.1562,-7.4375 0,-0.22889 0.5576,-0.70868 1.2188,-1.0625 0.9399,-0.50303 2.4586,-0.32614 7,0.84375 3.1943,0.82288 6.2975,1.5 6.9062,1.5 3.5881,0 0.8686,-4.37599 -7.7812,-12.53125 -7.7433,-7.30045 -10.0399,-10.40158 -8.5,-11.375 1.4237,-0.9 2.7838,-0.65678 9.1874,1.53125 3.9906,1.36352 6.2814,1.8749 6.6563,1.5 1.5107,-1.51076 -2.0264,-7.00969 -10.7813,-16.71875 -5.1937,-5.75975 -7.4062,-9.11637 -7.4062,-11.3125 0,-2.3526 1.8394,-2.07175 8.4375,1.34375 3.5347,1.82977 6.7559,3.3205 7.1563,3.3125 1.225,-0.0256 0.827,-3.57665 -0.75,-6.6875 -0.8142,-1.60567 -3.5988,-5.82138 -6.1876,-9.34375 -4.8051,-6.53827 -6.3124,-9.21432 -6.3124,-11.3125 0,-1.8545 2.0931,-1.48309 8.0937,1.4375 6.5194,3.17304 7.625,3.29063 7.625,0.84375 0,-2.35521 -1.6082,-5.41449 -6.8125,-12.96875 -7.9953,-11.60545 -10.0798,-18.36875 -4.6562,-15.06245 1.0301,0.6281 4.057,2.4861 6.75,4.125 8.1993,4.99012 9.5385,3.7481 5.0937,-4.7187 -1.3937,-2.6549 -4.004,-7.652 -5.8125,-11.0938 -1.8084,-3.4418 -3.3125,-6.9177 -3.3125,-7.7188 0,-2.1632 2.5441,-1.8907 6.75,0.6876 5.727,3.5108 6.7181,3.9277 7.75,3.2812 2.3853,-1.4944 1.4694,-5.1048 -4.3125,-16.7812 -4.8936,-9.8824 -5.5227,-11.7449 -4.125,-12.2813 1.7906,-0.6871 3.8799,0.4019 8.5938,4.4687 2.6079,2.25 5.1733,4.0043 5.6874,3.9063 0.6826,-0.1296 0.968,-0.9755 1.0938,-3.125 0.1851,-3.1632 -1.3438,-8.2429 -5.4062,-17.9375 -1.1947,-2.8511 -2.3062,-6.1627 -2.4688,-7.375 -0.3716,-2.7708 0.2117,-5.1875 1.25,-5.1875 0.4373,0 2.9775,1.9706 5.6562,4.4063 5.5169,5.0158 7.1834,6.0353 8.2188,5 1.0167,-1.0168 -0.2416,-7.4135 -3.3125,-16.9063 -3.3674,-10.4096 -3.7595,-12.0313 -3.2187,-12.9063 0.9829,-1.5905 3.7769,0.1359 8.75,5.3126 2.7485,2.861 5.2378,5.1874 5.5312,5.1874 0.2934,0 0.926,-0.2572 1.4062,-0.5624 1.3732,-0.873 1.0124,-9.0249 -0.75,-16.3126 -1.7409,-7.1989 -2.4351,-11.828 -1.9374,-13.125 0.3252,-0.8483 0.5081,-0.8243 2.0624,0.094 0.9414,0.5561 3.079,2.5121 4.7188,4.375 4.0886,4.6449 4.8663,5.0276 6.6875,3.0625 1.8368,-1.982 1.9058,-5.0344 0.25,-11.875 -2.2256,-9.1947 -3.3793,-15.2371 -3.0625,-16.0625 0.4476,-1.1665 2.1118,-1.0186 3.8438,0.3438 0.8159,0.6419 2.9705,3.5053 4.7812,6.375 3.7572,5.9546 3.6729,5.9414 7.6562,0.9687 4.0039,-4.9985 4.0809,-5.3756 1.8438,-7.4687 -4.3319,-4.053 -25.4653,-16.6426 -37.1562,-22.1563 -17.62,-8.31 -43.113,-16.1543 -61.4063,-18.875 -4.9255,-0.7325 -17.8507,-1.0964 -31.125,-1.0937 z m -146.0625,51.3124 -3.4062,2.3126 c -4.1216,2.8075 -17.1777,15.6867 -22.3438,22.0624 -21.7957,26.899 -35.0678,50.2144 -44.1562,77.5313 -6.8839,20.6901 -10.1568,40.70777 -10.9063,66.31245 -1.5947,54.486 15.7586,104.50166 51.2187,147.59375 4.8062,5.84067 28.9803,30.12718 33.5626,33.71875 1.7874,1.40105 3.2833,2.21245 3.4062,1.84375 0.1204,-0.36108 -1.2435,-4.31329 -3.0312,-8.78125 -4.4672,-11.16414 -5.1314,-14.5625 -2.8438,-14.5625 1.0109,0 5.7313,3.356 7.4375,5.28125 1.1972,1.35083 5.9961,4.625 6.7813,4.625 0.2463,0 0.7068,-0.51885 1.0312,-1.125 0.7478,-1.3972 -0.3413,-5.21255 -3.375,-11.8125 -2.4747,-5.38387 -4.0414,-9.89983 -4.1875,-12.09375 -0.1678,-2.52187 0.02,-3.5 0.6563,-3.5 0.3389,0 3.0618,2.19622 6.0624,4.90625 7.1758,6.4809 10.2526,7.237 10.6563,2.5625 0.1374,-1.59121 -0.944,-4.24333 -5.0937,-12.4375 -2.8979,-5.72205 -5.25,-10.85813 -5.25,-11.4375 0,-2.06259 2.7862,-1.09045 9.4062,3.3125 3.6236,2.41007 6.9865,4.31795 7.4688,4.21875 1.813,-0.37284 0.8601,-4.37412 -2.6563,-11.125 -8.642,-16.59129 -9.1707,-17.84375 -7.2187,-17.84375 1.7057,0 4.2143,1.60159 10.5937,6.78125 6.0108,4.88029 6.1644,4.85715 6.6563,-0.875 0.3352,-3.90761 -0.7463,-6.28953 -6.125,-13.375 -5.1112,-6.7328 -7.8332,-11.02793 -7.4063,-11.71875 0.9953,-1.61031 4.3045,-0.53835 10.375,3.34375 5.0235,3.21258 6.9476,3.9101 8.5313,3.0625 2.9598,-1.58407 0.4066,-8.06358 -6.3126,-16 -5.0056,-5.91259 -7.0312,-8.92644 -7.0312,-10.40625 0,-1.0133 0.2907,-1.08906 2.1875,-0.78125 1.1936,0.19369 4.6273,1.51947 7.625,2.96875 5.7639,2.78663 7.8909,3.22446 8.4687,1.71875 1.137,-2.963 -0.01,-5.10661 -7,-12.9375 -5.6023,-6.27595 -7.7812,-9.53054 -7.7812,-11.71875 0,-0.65319 0.344,-1.1875 0.7812,-1.1875 0.4374,0 3.6709,1.27379 7.1563,2.84375 8.1876,3.68802 8.6218,3.78442 9.8125,2.59375 2.0402,-2.04017 -0.8489,-7.03435 -8.8125,-15.375 -5.287,-5.53741 -7.5408,-8.79781 -6.875,-9.875 0.7909,-1.27981 4.104,-0.40557 9.9687,2.65625 7.3367,3.83027 7.8168,3.72658 7.8438,-1.9375 0.023,-4.86869 -0.2317,-5.40503 -3.6562,-7.40625 -1.6439,-0.96064 -5.1982,-3.84453 -7.875,-6.40625 -7.8533,-7.51502 -6.3621,-9.20851 4.5624,-5.15625 4.1256,1.53029 5.9549,1.95144 6.4063,1.5 0.3464,-0.34634 0.625,-1.92435 0.625,-3.53125 0,-4.00807 -1.2767,-5.56185 -8.5313,-10.5 -6.6349,-4.51634 -9.0624,-7.00025 -9.0624,-9.15625 0,-1.76899 0.2255,-1.73882 8.3124,0.0937 8.0049,1.81395 9.125,1.64024 9.125,-1.375 0,-4.35529 -2.664,-7.11989 -13.3124,-13.6875 -2.6919,-1.66018 -5.2652,-3.5845 -5.7188,-4.28125 -0.7465,-1.14638 -0.7045,-1.32634 0.4375,-1.9375 0.9585,-0.51304 2.6985,-0.52435 7.3125,0 6.8644,0.78011 7.8125,0.48203 7.8125,-2.50005 0,-2.4917 -3.1705,-5.2734 -10.3125,-9.0624 -8.4155,-4.4647 -11.4108,-7.538 -8.2812,-8.5313 0.6667,-0.2117 4.1729,-0.2254 7.7812,0 7.3873,0.4616 7.5845,0.3697 6.7188,-3.4687 -0.7359,-3.263 -2.2945,-4.5342 -10.9688,-8.7813 -8.1661,-3.9982 -9.9688,-5.1551 -9.9688,-6.4063 0,-1.188 1.6729,-1.5775 8.9063,-2.0312 3.7899,-0.2378 7.1726,-0.7039 7.5,-1.0312 0.9597,-0.9597 -0.5304,-4.5124 -2.6875,-6.4063 -1.0576,-0.9286 -4.006,-2.5342 -6.5312,-3.5625 -8.5421,-3.4787 -11.875,-5.2718 -11.875,-6.4375 0,-1.2812 0.4996,-1.4624 7,-2.5937 5.1458,-0.8956 6.4062,-1.6979 6.4062,-4.125 0,-3.3154 -3.5933,-5.5851 -13.5625,-8.4688 -6.3085,-1.8249 -9.3472,-3.3074 -9.625,-4.75 -0.2809,-1.4586 1.8102,-2.2273 7.6563,-2.8125 7.4257,-0.7433 7.9687,-0.8964 7.9687,-2.4687 0,-1.522 -2.8478,-4.4425 -5.75,-5.9063 -1.0785,-0.5439 -4.4409,-1.2449 -7.4687,-1.5313 -8.4194,-0.7965 -13,-2.3042 -13,-4.3124 0,-1.3657 2.3157,-2.4857 7.2812,-3.5 2.5559,-0.5222 5.3186,-1.2408 6.125,-1.625 2.0426,-0.9738 2.263,-3.8207 0.4688,-5.9063 -1.2531,-1.4566 -1.8636,-1.6058 -9.25,-2.3437 -11.3034,-1.1293 -14.5,-2.1086 -14.5,-4.4376 0,-1.5226 2.1903,-2.794 7,-4.0312 4.2048,-1.0816 6.375,-2.4108 6.375,-3.9062 0,-0.769 -1.9485,-3.7854 -4.5938,-7.125 l -1.125,-1.4376 z m 288.6875,0.625 c -0.6007,0.1606 -2.0651,1.5899 -3.7813,3.6876 -4.6898,5.7322 -4.5378,6.0667 3.7188,9.125 6.9303,2.5669 8.9279,3.7908 7.8438,4.875 -0.339,0.3389 -4.7841,1.3937 -9.875,2.3437 -5.0911,0.9499 -10.1918,2.0161 -11.3126,2.375 -2.6294,0.8421 -5.2187,2.6776 -5.2187,3.6875 0,1.4309 2.8326,3.0893 7.125,4.125 5.0384,1.2157 7.9478,2.4958 8.8125,3.9062 0.8907,1.4529 0.302,1.7429 -7.9688,3.5938 -9.0081,2.0159 -13.9273,3.5796 -15.8124,5.0625 -3.0675,2.4128 -1.4214,3.8924 6.3437,5.7187 7.586,1.7844 8.4952,3.0068 4.1875,5.5313 -1.709,1.0015 -4.3219,1.7416 -8.125,2.3125 -3.0914,0.464 -6.5605,1.309 -7.6875,1.8438 -4.0706,1.9315 -6.3221,6.5255 -4.0937,8.375 0.4724,0.392 3.4049,1.102 6.5,1.5624 6.046,0.8997 7.7812,1.5034 7.7812,2.7813 0,1.5532 -3.1357,3.2568 -9.8438,5.3437 -8.4275,2.622 -10.8465,3.8612 -11.9687,6.0313 -1.0723,2.0736 -1.1529,5.0112 -0.1563,5.6563 0.4004,0.259 4.3593,0.4687 8.8126,0.4687 5.6638,0 8.1809,0.2108 8.3437,0.6875 0.5729,1.6774 -3.2605,4.3728 -11.4687,8.0625 -9.5102,4.2749 -11.7813,6.0357 -11.7813,9.1875 0,3.4035 0.098,3.4449 7.9063,3 5.9552,-0.3392 7.2303,-0.2704 7.8437,0.4688 1.1633,1.4016 -1.5033,3.9788 -8.25,8.0312 -7.1423,4.29 -10.875,7.6817 -10.875,9.9062 0,0.85971 0.3932,1.73334 0.8437,1.90625 0.4507,0.17292 3.4575,0.007 6.6876,-0.34375 5.9513,-0.64684 8.7812,-0.20405 8.7812,1.34375 0,1.22588 -3.2401,3.82176 -8.8125,7.09375 -6.6507,3.90516 -10.7828,7.8013 -11.3125,10.625 -0.2034,1.08672 -0.2107,2.25277 0,2.59375 0.4991,0.80761 3.4165,0.78719 10.2812,-0.0625 3.0652,-0.37938 6.0142,-0.52295 6.5626,-0.3125 1.8537,0.71133 -0.446,3.53445 -7.0938,8.75 -6.9367,5.44216 -9.3431,8.17005 -9.8125,11.0625 -0.5211,3.21101 0.6556,3.59827 6.2187,2.15625 6.6176,-1.71536 11.625,-2.20364 11.625,-1.125 0,1.49229 -1.7118,3.36178 -7.4374,8 -8.5681,6.94061 -11.1071,10.13075 -10.5,13.21875 0.462,2.35005 1.9463,2.36979 8.7812,0.0937 12.2205,-4.06946 12.514,-2.60806 1.8125,8.46875 -3.9781,4.11753 -6.6282,7.43571 -7.5313,9.375 -1.7088,3.67039 -1.7418,4.21607 -0.2187,5.03125 1.4613,0.78204 3.8537,0.32145 8.125,-1.59375 5.9022,-2.64643 7.3782,-3.06402 8.375,-2.3125 0.821,0.61886 0.7996,0.86953 -0.031,2.5625 -0.505,1.02892 -3.245,4.42714 -6.0937,7.53125 -6.1544,6.70625 -8.4062,10.75759 -7.625,13.6875 0.6879,2.58005 2.3046,2.48865 6.7813,-0.375 4.1918,-2.68152 7.8025,-4.32715 9.5,-4.34375 1.0551,-0.0103 1.3124,0.28862 1.3124,1.625 0,1.90301 -1.6889,4.35951 -7.3437,10.625 -7.5713,8.38894 -9.4109,15.6875 -3.9375,15.6875 1.7834,0 2.657,-0.45528 9.1562,-4.75 9.8601,-6.51546 10.1715,-3.58277 1.0626,10.40625 -2.9172,4.47999 -5.579,8.85797 -5.9063,9.71875 -0.9152,2.40718 -0.6996,4.69863 0.5313,5.8125 1.3529,1.22434 1.9713,0.94277 7.9062,-3.5 11.7398,-8.78806 12.9939,-6.5447 4.2188,7.4375 -6.487,10.33644 -8.2627,15.07224 -6.1563,16.40625 1.2423,0.78677 4.1099,-0.60631 10.5625,-5.15625 2.5,-1.76281 4.9336,-3.21875 5.4375,-3.21875 1.6381,0 0.4602,3.80968 -3.9063,12.5625 -4.5551,9.13101 -5.1932,12.05423 -3.25,14.96875 0.5873,0.88059 1.4263,1.59375 1.8438,1.59375 0.4175,0 2.6515,-2.08981 4.9688,-4.65625 4.4504,-4.92877 7.1431,-7 9.1874,-7 1.7671,0 1.6,1.37356 -0.8437,6.4375 -3.7981,7.87073 -6.6581,14.58106 -7.1875,16.9375 -0.6606,2.93977 0.1983,6.34375 1.5938,6.34375 0.5478,0 3.3518,-2.13036 6.2187,-4.71875 2.8669,-2.58838 5.9193,-5.10062 6.8125,-5.5625 1.5989,-0.82669 1.625,-0.80365 1.625,0.875 0,1.70042 -2.8985,10.66127 -5.1875,16 -0.6635,1.54757 -1.1875,3.19121 -1.1875,3.65625 0,1.22869 1.5532,0.26647 6.5625,-4.03125 18.3821,-15.7709 37.3261,-37.88893 48.8125,-56.96875 16.9063,-28.08288 25.9327,-54.64989 30.5938,-90.1875 1.2936,-9.86374 1.4897,-42.82078 0.3124,-52.375 -5.5724,-45.22915 -23.7294,-85.54045 -55.7187,-123.71875 -8.4929,-10.136 -17.62,-18.9204 -22.8125,-22 -0.049,-0.029 -0.1017,-0.054 -0.1875,-0.031 z" />
  </g>
</svg>

